<?xml version="1.0" encoding="utf-8"?>
<!-- Generator: Adobe Illustrator 28.0.0, SVG Export Plug-In . SVG Version: 6.00 Build 0)  -->
<svg version="1.1" id="Layer_1" xmlns="http://www.w3.org/2000/svg" xmlns:xlink="http://www.w3.org/1999/xlink" x="0px" y="0px"
	 viewBox="0 0 16 16" style="enable-background:new 0 0 16 16;" xml:space="preserve">
<style type="text/css">
	.st0{fill:#5C44E4;}
	.st1{fill:#F11653;}
</style>
<g>
	<g>
		<path class="st0" d="M0.2,7.8V5C0.2,4,1,3.2,2,3.2h2c0.1,0,0.2-0.1,0.2-0.2V1.8c0-0.8,0.7-1.5,1.5-1.5h4.5c0.8,0,1.5,0.7,1.5,1.5
			V3c0,0.1,0.1,0.2,0.2,0.2h2c1,0,1.8,0.8,1.8,1.8v2.8H0.2z M5.8,1.2c-0.3,0-0.5,0.2-0.5,0.5V3c0,0.1,0.1,0.2,0.2,0.2h5
			c0.1,0,0.2-0.1,0.2-0.2V1.8c0-0.3-0.2-0.5-0.5-0.5H5.8z"/>
		<path d="M10.2,0.5c0.7,0,1.2,0.6,1.2,1.2V3c0,0.3,0.2,0.5,0.5,0.5h2c0.8,0,1.5,0.7,1.5,1.5v2.5H10H6H0.5V5c0-0.8,0.7-1.5,1.5-1.5
			h2c0.3,0,0.5-0.2,0.5-0.5V1.8c0-0.7,0.6-1.2,1.2-1.2H10.2 M5.5,3.5h5C10.8,3.5,11,3.3,11,3V1.8C11,1.3,10.7,1,10.2,1H5.8
			C5.3,1,5,1.3,5,1.8V3C5,3.3,5.2,3.5,5.5,3.5 M10.2,0H5.8C4.8,0,4,0.8,4,1.8V3H2C0.9,3,0,3.9,0,5v3h6h4h6V5c0-1.1-0.9-2-2-2h-2V1.8
			C12,0.8,11.2,0,10.2,0L10.2,0z M5.5,3V1.8c0-0.1,0.1-0.2,0.2-0.2h4.5c0.1,0,0.2,0.1,0.2,0.2V3H5.5L5.5,3z"/>
	</g>
	<g>
		<path class="st1" d="M2,14.8c-1,0-1.8-0.8-1.8-1.8V9.2h5.5V10c0,0.7,0.6,1.2,1.2,1.2h2c0.7,0,1.2-0.6,1.2-1.2V9.2h5.5V13
			c0,1-0.8,1.8-1.8,1.8H2z"/>
		<path d="M15.5,9.5V13c0,0.8-0.7,1.5-1.5,1.5H2c-0.8,0-1.5-0.7-1.5-1.5V9.5h5V10c0,0.8,0.7,1.5,1.5,1.5h2c0.8,0,1.5-0.7,1.5-1.5
			V9.5H15.5 M16,9h-6v1c0,0.6-0.4,1-1,1H7c-0.6,0-1-0.4-1-1V9H0v4c0,1.1,0.9,2,2,2h12c1.1,0,2-0.9,2-2V9L16,9z"/>
	</g>
</g>
</svg>
