<?xml version="1.0" encoding="utf-8"?>
<!-- Generator: Adobe Illustrator 28.0.0, SVG Export Plug-In . SVG Version: 6.00 Build 0)  -->
<svg version="1.1" id="Layer_1" xmlns="http://www.w3.org/2000/svg" xmlns:xlink="http://www.w3.org/1999/xlink" x="0px" y="0px"
	 viewBox="0 0 16 16" style="enable-background:new 0 0 16 16;" xml:space="preserve">
<style type="text/css">
	.st0{fill:#F11653;}
</style>
<g>
	<g>
		<path class="st0" d="M9.9,15.8c-0.1,0-0.3-0.1-0.4-0.2l-1.4-1.4c0,0-0.1-0.1-0.2-0.1s-0.1,0-0.2,0.1l-1.4,1.4
			c-0.1,0.1-0.2,0.2-0.4,0.2c0,0-0.1,0-0.1,0c-0.2,0-0.3-0.2-0.4-0.4l-0.5-2c0-0.1-0.1-0.1-0.1-0.2c0,0-0.1,0-0.1,0c0,0,0,0-0.1,0
			l-1.9,0.5c0,0-0.1,0-0.1,0c-0.1,0-0.3-0.1-0.4-0.1c-0.1-0.1-0.2-0.3-0.1-0.5l0.5-1.9c0-0.1,0-0.1,0-0.2s-0.1-0.1-0.2-0.1l-2-0.5
			c-0.2,0-0.3-0.2-0.4-0.4c0-0.2,0-0.4,0.1-0.5l1.4-1.4c0,0,0.1-0.1,0.1-0.2s0-0.1-0.1-0.2L0.4,6.4C0.3,6.3,0.2,6.1,0.3,5.9
			c0-0.2,0.2-0.3,0.4-0.4l2-0.5C2.6,5.1,2.7,5,2.7,5s0-0.1,0-0.2L2.2,2.8c0-0.2,0-0.4,0.1-0.5c0.1-0.1,0.2-0.1,0.4-0.1
			c0,0,0.1,0,0.1,0l1.9,0.5c0,0,0,0,0.1,0c0,0,0.1,0,0.1,0c0.1,0,0.1-0.1,0.1-0.2l0.5-2c0-0.2,0.2-0.3,0.4-0.4c0,0,0.1,0,0.1,0
			c0.1,0,0.3,0.1,0.4,0.2l1.4,1.4c0,0,0.1,0.1,0.2,0.1s0.1,0,0.2-0.1l1.4-1.4c0.1-0.1,0.2-0.2,0.4-0.2c0,0,0.1,0,0.1,0
			c0.2,0,0.3,0.2,0.4,0.4l0.5,2c0,0.1,0.1,0.1,0.1,0.2c0,0,0.1,0,0.1,0c0,0,0,0,0.1,0l1.9-0.5c0,0,0.1,0,0.1,0
			c0.1,0,0.3,0.1,0.4,0.1c0.1,0.1,0.2,0.3,0.1,0.5l-0.5,1.9c0,0.1,0,0.1,0,0.2c0,0.1,0.1,0.1,0.2,0.1l2,0.5c0.2,0,0.3,0.2,0.4,0.4
			c0,0.2,0,0.4-0.1,0.5l-1.4,1.4c0,0-0.1,0.1-0.1,0.2s0,0.1,0.1,0.2l1.4,1.4c0.1,0.1,0.2,0.3,0.1,0.5c0,0.2-0.2,0.3-0.4,0.4l-2,0.5
			c-0.1,0-0.1,0.1-0.2,0.1c0,0.1,0,0.1,0,0.2l0.5,1.9c0,0.2,0,0.4-0.1,0.5c-0.1,0.1-0.2,0.1-0.4,0.1c0,0-0.1,0-0.1,0l-1.9-0.5
			c0,0,0,0-0.1,0c0,0-0.1,0-0.1,0c-0.1,0-0.1,0.1-0.1,0.2l-0.5,2c0,0.2-0.2,0.3-0.4,0.4C10,15.7,10,15.8,9.9,15.8z"/>
		<path d="M9.9,0.5C10,0.5,10,0.5,9.9,0.5c0.2,0,0.2,0.1,0.2,0.2l0.5,2c0,0.1,0.1,0.2,0.2,0.3C11,3,11.1,3,11.2,3c0,0,0.1,0,0.1,0
			l1.9-0.5c0,0,0,0,0.1,0c0.1,0,0.1,0,0.2,0.1c0.1,0.1,0.1,0.2,0.1,0.2L13,4.7c0,0.1,0,0.3,0,0.4c0.1,0.1,0.2,0.2,0.3,0.2l1.9,0.5
			c0.1,0,0.2,0.1,0.2,0.2c0,0.1,0,0.2-0.1,0.2L14,7.6c-0.1,0.1-0.2,0.2-0.2,0.4s0.1,0.3,0.2,0.4l1.4,1.4c0.1,0.1,0.1,0.2,0.1,0.2
			c0,0.1-0.1,0.2-0.2,0.2l-2,0.5c-0.1,0-0.2,0.1-0.3,0.2C13,11,13,11.2,13,11.3l0.5,1.9c0,0.1,0,0.2-0.1,0.2c0,0-0.1,0.1-0.2,0.1
			c0,0,0,0-0.1,0L11.3,13c0,0-0.1,0-0.1,0c-0.1,0-0.2,0-0.3,0.1c-0.1,0.1-0.2,0.2-0.2,0.3l-0.5,1.9c0,0.1-0.1,0.2-0.2,0.2
			c0,0,0,0-0.1,0c-0.1,0-0.1,0-0.2-0.1L8.4,14c-0.1-0.1-0.2-0.2-0.4-0.2c-0.1,0-0.3,0.1-0.4,0.2l-1.4,1.4c0,0-0.1,0.1-0.2,0.1
			c0,0,0,0-0.1,0c-0.1,0-0.2-0.1-0.2-0.2l-0.5-2c0-0.1-0.1-0.2-0.2-0.3C5,13,4.9,13,4.8,13c0,0-0.1,0-0.1,0l-1.9,0.5c0,0,0,0-0.1,0
			c-0.1,0-0.1,0-0.2-0.1c-0.1-0.1-0.1-0.2-0.1-0.2L3,11.3c0-0.1,0-0.3,0-0.4c-0.1-0.1-0.2-0.2-0.3-0.2l-1.9-0.5
			c-0.1,0-0.2-0.1-0.2-0.2c0-0.1,0-0.2,0.1-0.2L2,8.4C2.1,8.3,2.2,8.1,2.2,8S2.1,7.7,2,7.6L0.6,6.2C0.5,6.2,0.5,6.1,0.5,6
			c0-0.1,0.1-0.2,0.2-0.2l2-0.5c0.1,0,0.2-0.1,0.3-0.2C3,5,3,4.8,3,4.7L2.5,2.8c0-0.1,0-0.2,0.1-0.2c0,0,0.1-0.1,0.2-0.1
			c0,0,0,0,0.1,0L4.7,3c0,0,0.1,0,0.1,0C4.9,3,5,3,5.1,3c0.1-0.1,0.2-0.2,0.2-0.3l0.5-1.9c0-0.1,0.1-0.2,0.2-0.2c0,0,0,0,0.1,0
			c0.1,0,0.1,0,0.2,0.1L7.6,2C7.7,2.1,7.9,2.2,8,2.2c0.1,0,0.3-0.1,0.4-0.2l1.4-1.4C9.8,0.5,9.9,0.5,9.9,0.5
			C9.9,0.5,9.9,0.5,9.9,0.5 M9.9,0C9.7,0,9.5,0.1,9.4,0.2L8,1.7L6.6,0.2C6.5,0.1,6.3,0,6.1,0C6,0,5.9,0,5.9,0
			C5.6,0.1,5.4,0.3,5.3,0.6l-0.5,2L2.9,2c-0.1,0-0.1,0-0.2,0C2.5,1.9,2.3,2,2.2,2.2C2,2.4,1.9,2.6,2,2.9l0.5,1.9l-2,0.5
			C0.3,5.4,0.1,5.6,0,5.9C0,6.1,0,6.4,0.2,6.6L1.7,8L0.2,9.4C0,9.6,0,9.9,0,10.1s0.3,0.5,0.5,0.5l2,0.5L2,13.1
			c-0.1,0.3,0,0.5,0.2,0.7c0.1,0.1,0.3,0.2,0.5,0.2c0.1,0,0.1,0,0.2,0l1.9-0.5l0.5,2c0.1,0.3,0.3,0.5,0.5,0.5c0.1,0,0.1,0,0.2,0
			c0.2,0,0.4-0.1,0.5-0.2L8,14.3l1.4,1.4C9.5,15.9,9.7,16,9.9,16c0.1,0,0.1,0,0.2,0c0.3-0.1,0.5-0.3,0.5-0.5l0.5-2l1.9,0.5
			c0.1,0,0.1,0,0.2,0c0.2,0,0.4-0.1,0.5-0.2c0.2-0.2,0.3-0.5,0.2-0.7l-0.5-1.9l2-0.5c0.3-0.1,0.5-0.3,0.5-0.5s0-0.5-0.2-0.7L14.3,8
			l1.4-1.4C16,6.4,16,6.1,16,5.9s-0.3-0.5-0.5-0.5l-2-0.5L14,2.9c0.1-0.3,0-0.5-0.2-0.7c-0.1-0.1-0.3-0.2-0.5-0.2
			c-0.1,0-0.1,0-0.2,0l-1.9,0.5l-0.5-2c-0.1-0.3-0.3-0.5-0.5-0.5C10.1,0,10,0,9.9,0L9.9,0z"/>
	</g>
</g>
</svg>
