<?xml version="1.0" encoding="utf-8"?>
<!-- Generator: Adobe Illustrator 28.0.0, SVG Export Plug-In . SVG Version: 6.00 Build 0)  -->
<svg version="1.1" id="Layer_1" xmlns="http://www.w3.org/2000/svg" xmlns:xlink="http://www.w3.org/1999/xlink" x="0px" y="0px"
	 viewBox="0 0 16 16" style="enable-background:new 0 0 16 16;" xml:space="preserve">
<style type="text/css">
	.st0{fill:#F11653;}
	.st1{fill:#5C44E4;}
</style>
<g>
	<g>
		<path class="st0" d="M8,9.7c-0.2,0-0.3-0.1-0.5-0.1L0.8,4.5c-0.3-0.2-0.5-0.6-0.5-1c0-0.7,0.6-1.2,1.2-1.2h13
			c0.7,0,1.2,0.6,1.2,1.2c0,0.4-0.2,0.8-0.5,1L8.5,9.6C8.3,9.7,8.2,9.7,8,9.7z"/>
		<g>
			<path d="M14.5,2.5c0.6,0,1,0.4,1,1c0,0.3-0.1,0.6-0.4,0.8L8.3,9.4C8.2,9.5,8.1,9.5,8,9.5s-0.2,0-0.3-0.1L0.9,4.3
				C0.6,4.1,0.5,3.8,0.5,3.5c0-0.6,0.4-1,1-1H14.5 M14.5,2h-13C0.7,2,0,2.7,0,3.5C0,4,0.2,4.4,0.6,4.7l6.8,5.1C7.6,9.9,7.8,10,8,10
				s0.4-0.1,0.6-0.2l6.8-5.1C15.8,4.4,16,4,16,3.5C16,2.7,15.3,2,14.5,2L14.5,2z"/>
		</g>
	</g>
	<g>
		<path class="st1" d="M2,13.8c-1,0-1.8-0.8-1.8-1.8V6l6.4,4.8C7,11.1,7.5,11.3,8,11.3s1-0.2,1.4-0.5L15.8,6v6c0,1-0.8,1.8-1.8,1.8
			H2z"/>
		<g>
			<path d="M15.5,6.5V12c0,0.8-0.7,1.5-1.5,1.5H2c-0.8,0-1.5-0.7-1.5-1.5V6.5l6,4.5c0.4,0.3,1,0.5,1.5,0.5s1.1-0.2,1.5-0.5L15.5,6.5
				 M16,5.5l-6.8,5.1C8.8,10.9,8.4,11,8,11s-0.8-0.1-1.2-0.4L0,5.5V12c0,1.1,0.9,2,2,2h12c1.1,0,2-0.9,2-2V5.5L16,5.5z"/>
		</g>
	</g>
</g>
</svg>
