<?xml version="1.0" encoding="utf-8"?>
<!-- Generator: Adobe Illustrator 28.0.0, SVG Export Plug-In . SVG Version: 6.00 Build 0)  -->
<svg version="1.1" id="Layer_1" xmlns="http://www.w3.org/2000/svg" xmlns:xlink="http://www.w3.org/1999/xlink" x="0px" y="0px"
	 viewBox="0 0 20 16" style="enable-background:new 0 0 20 16;" xml:space="preserve">
<style type="text/css">
	.st0{fill:#F11653;}
	.st1{fill:#5C44E4;}
</style>
<g>
	<g>
		<path class="st0" d="M2.4,14.7l-2-0.5c-0.1,0-0.1-0.1-0.2-0.2c0-0.1,0-0.2,0-0.2c0.3-0.4,0.5-0.8,0.7-1.2c0.5-1,0.7-1.9,0.7-2.6
			V9.1c0-0.9,0.3-1.8,0.8-2.6c0-0.1,0.1-0.1,0-0.2c0-0.1-0.1-0.1-0.2-0.2L0.6,5.5C0.4,5.4,0.2,5.2,0.2,5s0.1-0.4,0.3-0.5l8.8-3.2
			C9.6,1.3,9.8,1.2,10,1.2s0.4,0,0.7,0.1l8.8,3.2c0.2,0.1,0.3,0.3,0.3,0.5c0,0.2-0.1,0.4-0.3,0.5l-8.8,3.2c-0.2,0.1-0.4,0.1-0.7,0.1
			c-0.2,0-0.4,0-0.7-0.1L4.7,7c0.2-0.1,0.4-0.3,0.6-0.3l4.9-1.9c0.2-0.1,0.3-0.2,0.4-0.4c0.1-0.2,0.1-0.4,0-0.6
			c-0.1-0.3-0.4-0.5-0.7-0.5c-0.1,0-0.2,0-0.3,0.1L4.8,5.2C4.2,5.5,3.6,5.9,3.2,6.4C2.6,7.2,2.2,8.1,2.2,9.1v0.8c0,0,0,0.1,0,0.1
			c0.2,0.4,0.3,0.8,0.4,1.3c0.2,0.8,0.3,2,0.1,3.3c0,0.1-0.1,0.1-0.1,0.2C2.6,14.7,2.5,14.8,2.4,14.7C2.5,14.8,2.5,14.8,2.4,14.7z"
			/>
		<path d="M10,1.5c0.2,0,0.4,0,0.6,0.1l8.8,3.2c0.1,0,0.2,0.1,0.2,0.2c0,0.1-0.1,0.2-0.2,0.2l-8.8,3.2c-0.2,0.1-0.4,0.1-0.6,0.1
			c-0.2,0-0.4,0-0.6-0.1L5.3,6.9c0,0,0.1,0,0.1-0.1l4.9-1.9c0.5-0.2,0.8-0.8,0.6-1.3C10.8,3.2,10.4,3,10,3C9.9,3,9.8,3,9.6,3.1
			L4.7,5C4.1,5.3,3.5,5.7,3,6.3C2.9,6.4,2.8,6.5,2.7,6.6c0.1-0.1,0.1-0.3,0-0.4c0-0.1-0.2-0.3-0.3-0.3L0.7,5.2
			C0.6,5.2,0.5,5.1,0.5,5c0-0.1,0.1-0.2,0.2-0.2l8.8-3.2C9.6,1.5,9.8,1.5,10,1.5 M2.6,6.8C2.2,7.5,2,8.3,2,9.1
			C2,8.3,2.2,7.5,2.6,6.8 M2,9.1C2,9.1,2,9.1,2,9.1C2,9.1,2,9.1,2,9.1 M2,9.1C2,9.1,2,9.1,2,9.1C2,9.1,2,9.1,2,9.1 M2,9.1v0.8
			C2,10,2,10,2,10.1c0.2,0.3,0.3,0.7,0.4,1.2c0.2,0.7,0.3,1.9,0.1,3.2l-2-0.5c0.3-0.4,0.5-0.8,0.7-1.2C1.7,11.7,2,10.8,2,10V9.1
			 M10,1C9.7,1,9.5,1,9.3,1.1L0.5,4.3C0.2,4.4,0,4.7,0,5c0,0.3,0.2,0.6,0.5,0.7l1.8,0.7C1.8,7.2,1.5,8.1,1.5,9.1V10
			c0,0.9-0.3,1.8-0.7,2.5c-0.2,0.4-0.4,0.8-0.7,1.2C0,13.8,0,14,0,14.2c0.1,0.2,0.2,0.3,0.4,0.3l2,0.5c0,0,0.1,0,0.1,0
			c0.1,0,0.2,0,0.3-0.1C2.9,14.9,3,14.7,3,14.6c0.3-1.3,0.1-2.5-0.1-3.4c-0.1-0.4-0.2-0.9-0.4-1.3V9.1c0-0.9,0.3-1.8,0.9-2.5
			c0.4-0.5,0.9-0.9,1.5-1.1l4.9-1.9c0.1,0,0.1,0,0.2,0c0.2,0,0.4,0.1,0.5,0.3c0.1,0.3,0,0.5-0.3,0.6L5.3,6.4c-0.4,0.2-0.7,0.4-1,0.7
			l5,1.8C9.5,8.9,9.7,9,10,9c0.3,0,0.5,0,0.7-0.1l8.8-3.2C19.8,5.6,20,5.3,20,5c0-0.3-0.2-0.6-0.5-0.7l-8.8-3.2C10.5,1,10.3,1,10,1
			L10,1z"/>
	</g>
	<g>
		<path class="st1" d="M10,14.8c-3.5,0-5.8-1.2-5.8-2l0.4-4.2L8.8,10c0.4,0.1,0.8,0.2,1.2,0.2c0.4,0,0.8-0.1,1.2-0.2l4.1-1.5
			l0.4,4.2C15.8,13.5,13.5,14.8,10,14.8z"/>
		<path d="M15.1,8.9l0.4,3.9c0,0.6-2.3,1.7-5.5,1.7s-5.5-1.1-5.5-1.7l0.4-3.9l3.8,1.4c0.4,0.1,0.8,0.2,1.2,0.2
			c0.4,0,0.8-0.1,1.2-0.2L15.1,8.9 M15.5,8.2l-4.4,1.6C10.7,9.9,10.4,10,10,10S9.3,9.9,8.9,9.8L4.5,8.2L4,12.7c0,1.1,2.7,2.2,6,2.2
			s6-1.1,6-2.2L15.5,8.2L15.5,8.2z"/>
	</g>
</g>
</svg>
