<?xml version="1.0" encoding="utf-8"?>
<!-- Generator: Adobe Illustrator 28.0.0, SVG Export Plug-In . SVG Version: 6.00 Build 0)  -->
<svg version="1.1" id="Layer_1" xmlns="http://www.w3.org/2000/svg" xmlns:xlink="http://www.w3.org/1999/xlink" x="0px" y="0px"
	 viewBox="0 0 48 48" style="enable-background:new 0 0 48 48;" xml:space="preserve">
<style type="text/css">
	.st0{fill:#FFFFFF;}
	.st1{fill:#0F0F11;}
</style>
<g>
	<path class="st0" d="M40,44H8c-2.2,0-4-1.8-4-4V8c0-2.2,1.8-4,4-4h32c2.2,0,4,1.8,4,4v32C44,42.2,42.2,44,40,44z"/>
</g>
<g>
	<path class="st1" d="M10.6,27.8h2.1c0.1,0.9,0.5,1.6,1.3,2.2s1.8,0.8,3,0.8c1.1,0,2.1-0.3,2.8-0.8s1.2-1.2,1.2-2
		c0-0.7-0.3-1.3-0.8-1.8s-1.3-0.8-2.5-1.1l-2.2-0.6c-1.6-0.4-2.7-1-3.4-1.7S11,21.2,11,20c0-1.4,0.6-2.6,1.7-3.4s2.5-1.3,4.3-1.3
		c1.7,0,3.1,0.5,4.2,1.4c1.1,0.9,1.7,2.1,1.7,3.5h-2.1c-0.1-0.9-0.5-1.6-1.2-2.1s-1.6-0.8-2.7-0.8s-2,0.3-2.7,0.8s-1,1.2-1,2
		c0,0.6,0.3,1.2,0.8,1.6s1.3,0.8,2.5,1.1l1.8,0.5c1.8,0.4,3,1,3.8,1.7s1.1,1.7,1.1,2.9c0,1.5-0.6,2.8-1.7,3.7S18.8,33,16.9,33
		c-1.8,0-3.3-0.4-4.4-1.3S10.7,29.3,10.6,27.8z"/>
	<path class="st1" d="M24.8,27.8h2.1c0.1,0.9,0.5,1.6,1.3,2.2s1.8,0.8,3,0.8c1.1,0,2.1-0.3,2.8-0.8s1.1-1.2,1.1-2.1
		c0-0.7-0.3-1.3-0.8-1.8S33,25.3,31.8,25l-2.2-0.6c-1.6-0.4-2.7-1-3.4-1.7s-1.1-1.6-1.1-2.8c0-1.4,0.6-2.6,1.7-3.4s2.5-1.3,4.3-1.3
		c1.7,0,3.1,0.5,4.2,1.4c1.1,0.9,1.7,2.1,1.7,3.5h-2.1c-0.1-0.9-0.5-1.6-1.2-2.1s-1.6-0.8-2.7-0.8c-1.1,0-2,0.3-2.7,0.8s-1,1.2-1,2
		c0,0.6,0.3,1.2,0.8,1.6s1.3,0.8,2.5,1.1l1.8,0.5c1.8,0.4,3,1,3.8,1.7s1.1,1.7,1.1,2.9c0,1.5-0.6,2.8-1.7,3.7
		c-1.1,0.9-2.7,1.4-4.6,1.4c-1.8,0-3.3-0.4-4.4-1.3S24.9,29.3,24.8,27.8z"/>
</g>
</svg>
