<?xml version="1.0" encoding="utf-8"?>
<!-- Generator: Adobe Illustrator 28.0.0, SVG Export Plug-In . SVG Version: 6.00 Build 0)  -->
<svg version="1.1" id="Layer_1" xmlns="http://www.w3.org/2000/svg" xmlns:xlink="http://www.w3.org/1999/xlink" x="0px" y="0px"
	 viewBox="0 0 512 512" style="enable-background:new 0 0 512 512;" xml:space="preserve">
<style type="text/css">
	.st0{fill:#F11653;}
	.st1{fill:#151417;}
	.st2{fill:#5C44E4;}
	.st3{fill:#F637E3;}
</style>
<g>
	<path class="st0" d="M7.5,248.5V160c0-31.2,25.3-56.5,56.5-56.5h64c4.1,0,7.5-3.4,7.5-7.5V56c0-26.7,21.8-48.5,48.5-48.5h144
		c26.7,0,48.5,21.8,48.5,48.5v40c0,4.1,3.4,7.5,7.5,7.5h64c31.2,0,56.5,25.3,56.5,56.5v88.5H7.5z M184,40.5c-8.5,0-15.5,7-15.5,15.5
		v40c0,4.1,3.4,7.5,7.5,7.5h160c4.1,0,7.5-3.4,7.5-7.5V56c0-8.5-7-15.5-15.5-15.5H184z"/>
	<path class="st1" d="M328,15c22.6,0,41,18.4,41,41v40c0,8.3,6.7,15,15,15h64c27,0,49,22,49,49v81H320H192H15v-81c0-27,22-49,49-49
		h64c8.3,0,15-6.7,15-15V56c0-22.6,18.4-41,41-41H328 M176,111h160c8.3,0,15-6.7,15-15V56c0-12.7-10.3-23-23-23H184
		c-12.7,0-23,10.3-23,23v40C161,104.3,167.7,111,176,111 M328,0H184c-30.9,0-56,25.1-56,56v40H64c-35.3,0-64,28.7-64,64v96h192h128
		h192v-96c0-35.3-28.7-64-64-64h-64V56C384,25.1,358.9,0,328,0L328,0z M176,96V56c0-4.4,3.6-8,8-8h144c4.4,0,8,3.6,8,8v40H176
		L176,96z"/>
</g>
<g>
	<path class="st2" d="M64,472.5c-31.2,0-56.5-25.3-56.5-56.5V295.5h177V320c0,21.8,17.7,39.5,39.5,39.5h64
		c21.8,0,39.5-17.7,39.5-39.5v-24.5h177V416c0,31.2-25.3,56.5-56.5,56.5H64z"/>
	<path class="st1" d="M497,303v113c0,27-22,49-49,49H64c-27,0-49-22-49-49V303h162v17c0,25.9,21.1,47,47,47h64c25.9,0,47-21.1,47-47
		v-17H497 M512,288H320v32c0,17.7-14.3,32-32,32h-64c-17.7,0-32-14.3-32-32v-32H0v128c0,35.3,28.7,64,64,64h384
		c35.3,0,64-28.7,64-64V288L512,288z"/>
</g>
</svg>
