<?xml version="1.0" encoding="utf-8"?>
<!-- Generator: Adobe Illustrator 28.0.0, SVG Export Plug-In . SVG Version: 6.00 Build 0)  -->
<svg version="1.1" id="Layer_1" xmlns="http://www.w3.org/2000/svg" xmlns:xlink="http://www.w3.org/1999/xlink" x="0px" y="0px"
	 viewBox="0 0 512 512" style="enable-background:new 0 0 512 512;" xml:space="preserve">
<style type="text/css">
	.st0{fill:#F11653;}
	.st1{fill:#151417;}
	.st2{fill:#5C44E4;}
	.st3{fill:#F637E3;}
</style>
<g>
	<path class="st0" d="M318.1,504.5c-4.4,0-8.7-1.8-11.8-5l-45-46.2c-1.4-1.4-3.3-2.3-5.4-2.3s-4,0.8-5.4,2.3l-45,46.2
		c-3.1,3.2-7.3,5-11.8,5c-1.4,0-2.9-0.2-4.3-0.6c-5.8-1.6-10.4-6.2-11.8-11.9L162,429.6c-0.5-2-1.8-3.6-3.5-4.7
		c-1.2-0.7-2.4-1-3.8-1c-0.7,0-1.4,0.1-2,0.3l-62,17.5c-1.5,0.4-3,0.6-4.5,0.6c-4.3,0-8.6-1.8-11.6-4.8c-4.2-4.2-5.8-10.4-4.2-16.1
		l17.5-62c0.5-1.9,0.3-4-0.7-5.8c-1-1.8-2.7-3-4.7-3.5l-62.5-15.8c-5.8-1.5-10.4-6-11.9-11.7c-1.5-5.9,0.2-12,4.4-16.1l46.3-45.1
		C60.2,260,61,258,61,256c0-2-0.8-4-2.3-5.4l-46.2-45c-4.4-4.2-6.1-10.2-4.5-15.9c1.6-5.8,6.2-10.4,11.9-11.8L82.4,162
		c2-0.5,3.6-1.8,4.6-3.5s1.3-3.8,0.7-5.8l-17.5-62c-1.6-5.8,0-11.9,4.2-16.2c3.1-3.1,7.3-4.8,11.6-4.8c1.5,0,3,0.2,4.5,0.6l62,17.5
		c0.7,0.2,1.4,0.3,2,0.3c1.3,0,2.6-0.3,3.8-1c1.8-1,3-2.7,3.5-4.7l15.8-62.5c1.5-5.8,6-10.4,11.7-11.9c1.4-0.4,2.8-0.6,4.3-0.6
		c4.5,0,8.8,1.8,11.8,5l45.1,46.3C252,60.2,254,61,256,61s4-0.8,5.4-2.3l45-46.2c3.1-3.2,7.3-5.1,11.7-5.1c1.4,0,2.9,0.2,4.3,0.6
		c5.8,1.6,10.4,6.2,11.8,11.9L350,82.4c0.5,2,1.8,3.6,3.5,4.6c1.2,0.7,2.4,1,3.7,1c0.7,0,1.4-0.1,2-0.3l62-17.5
		c1.5-0.4,3-0.6,4.5-0.6c4.3,0,8.6,1.8,11.6,4.8c4.2,4.2,5.8,10.4,4.2,16.1l-17.5,62c-0.5,1.9-0.3,4,0.7,5.8c1,1.8,2.7,3,4.7,3.5
		l62.5,15.8c5.7,1.5,10.3,6,11.9,11.8c1.6,5.7-0.1,11.9-4.4,16.1l-46.2,45c-1.4,1.4-2.3,3.3-2.3,5.4c0,2,0.8,4,2.3,5.4l46.2,45
		c4.3,4.2,6,10.3,4.4,16c-1.6,5.8-6.2,10.4-11.9,11.8L429.6,350c-2,0.5-3.6,1.8-4.7,3.5c-1,1.8-1.3,3.8-0.7,5.8l17.5,62
		c1.6,5.8,0,11.9-4.2,16.2c-3.1,3.1-7.3,4.8-11.6,4.8c-1.5,0-3-0.2-4.5-0.6l-62-17.5c-0.7-0.2-1.4-0.3-2-0.3c-1.3,0-2.6,0.3-3.8,1
		c-1.8,1-3,2.7-3.5,4.7l-15.8,62.5c-1.5,5.7-6,10.3-11.8,11.9C321,504.3,319.6,504.5,318.1,504.5z"/>
	<path class="st1" d="M318.1,15L318.1,15c0.8,0,1.5,0.1,2.3,0.3c3.2,0.9,5.7,3.4,6.5,6.5c0,0,0,0,0,0.1l15.9,62.5
		c1,3.9,3.5,7.3,7,9.3c2.3,1.3,4.9,2,7.5,2c1.4,0,2.7-0.2,4.1-0.6l62-17.5c0.8-0.2,1.6-0.3,2.4-0.3c2.4,0,4.7,1,6.3,2.6
		c2.3,2.3,3.2,5.7,2.3,8.8l-17.5,62c-1.1,3.9-0.6,8.1,1.4,11.6c2,3.5,5.4,6,9.3,7l62.4,15.8c3.2,0.9,5.7,3.4,6.6,6.5
		c0.8,3.1-0.1,6.4-2.4,8.7l-46.2,45c-2.9,2.8-4.5,6.7-4.5,10.7c0,4,1.6,7.9,4.5,10.7l46.2,45c2.3,2.2,3.2,5.6,2.4,8.7
		c-0.9,3.2-3.4,5.7-6.5,6.5l-62.5,15.8c-3.9,1-7.3,3.5-9.3,7c-2,3.5-2.5,7.7-1.4,11.6l17.5,62c0.9,3.1,0,6.5-2.3,8.8
		c-1.7,1.7-4,2.6-6.3,2.6c-0.8,0-1.6-0.1-2.5-0.4l-62-17.5c-1.3-0.4-2.7-0.6-4.1-0.6c-2.6,0-5.2,0.7-7.5,2c-3.5,2-6,5.4-7,9.3
		L327,490.1c-0.9,3.2-3.4,5.7-6.5,6.6c-0.8,0.2-1.5,0.3-2.3,0.3c-2.4,0-4.7-1-6.4-2.7l-45-46.2c-2.8-2.9-6.7-4.5-10.7-4.5
		s-7.9,1.6-10.7,4.5l-45,46.2c-1.8,1.8-4,2.7-6.4,2.7c-0.8,0-1.5-0.1-2.3-0.3c-3.2-0.9-5.7-3.4-6.5-6.5l-15.8-62.5
		c-1-3.9-3.5-7.3-7-9.3c-2.3-1.3-4.9-2-7.5-2c-1.4,0-2.7,0.2-4.1,0.6l-62,17.5c-0.8,0.2-1.6,0.3-2.4,0.3c-2.4,0-4.7-1-6.3-2.6
		c-2.3-2.3-3.2-5.7-2.3-8.8l17.5-62c1.1-3.9,0.6-8.1-1.4-11.6c-2-3.5-5.4-6-9.3-7L21.9,327c-3.2-0.9-5.7-3.3-6.5-6.4
		c-0.8-3.2,0.1-6.6,2.3-8.7c0,0,0.1-0.1,0.1-0.1l46.2-45c2.9-2.8,4.5-6.7,4.5-10.7c0-4-1.6-7.9-4.5-10.7l-46.2-45
		c0,0-0.1-0.1-0.1-0.1c-2.3-2.2-3.2-5.4-2.4-8.5c0.9-3.2,3.4-5.7,6.5-6.5c0,0,0,0,0.1,0l62.5-15.9c3.9-1,7.3-3.5,9.3-7
		s2.5-7.7,1.4-11.6l-17.5-62c-0.9-3.1,0-6.5,2.3-8.8c1.7-1.7,4-2.6,6.3-2.6c0.8,0,1.6,0.1,2.5,0.4l62,17.5c1.3,0.4,2.7,0.6,4.1,0.6
		c2.6,0,5.2-0.7,7.5-2c3.5-2,6-5.4,7-9.3L185,21.9c0.9-3.2,3.3-5.7,6.4-6.5c0.8-0.2,1.6-0.3,2.4-0.3c2.4,0,4.7,1,6.3,2.6
		c0,0,0.1,0.1,0.1,0.1l45,46.2c2.8,2.9,6.7,4.5,10.7,4.5s7.9-1.6,10.7-4.5l45-46.2c0,0,0.1-0.1,0.1-0.1
		C313.5,15.9,315.7,15,318.1,15 M318.1,0c-6.4,0-12.5,2.6-17.1,7.3l-45,46.2L211,7.3C206.5,2.5,200.2,0,193.8,0
		c-2.1,0-4.1,0.3-6.2,0.8c-8.4,2.2-14.9,8.9-17.1,17.3l-15.8,62.5l-62-17.5c-2.2-0.6-4.4-0.9-6.6-0.9c-6.3,0-12.4,2.5-16.9,7
		c-6.1,6.1-8.5,15.1-6.1,23.5l17.5,62l-62.5,15.9c-8.4,2.1-15,8.7-17.3,17.1C-1.5,196.1,1,205,7.3,211l46.2,45L7.3,301
		c-6.3,6-8.7,15-6.5,23.4c2.2,8.4,8.9,14.9,17.3,17.1l62.5,15.8l-17.5,62c-2.4,8.4,0,17.4,6.1,23.5c4.5,4.5,10.7,7,16.9,7
		c2.2,0,4.4-0.3,6.6-0.9l62-17.5l15.8,62.5c2.1,8.4,8.7,15,17.1,17.3c2.1,0.6,4.2,0.8,6.3,0.8c6.4,0,12.5-2.6,17.1-7.2l45-46.2
		l45,46.2c4.6,4.7,10.8,7.2,17.1,7.2c2.1,0,4.2-0.3,6.3-0.8c8.4-2.3,14.9-8.9,17.1-17.3l15.8-62.5l62,17.5c2.2,0.6,4.4,0.9,6.6,0.9
		c6.3,0,12.4-2.5,16.9-7c6.1-6.1,8.5-15.1,6.1-23.5l-17.5-62l62.5-15.8c8.4-2.1,15-8.7,17.3-17.1c2.3-8.4-0.2-17.4-6.4-23.4
		l-46.2-45l46.2-45c6.2-6.1,8.7-15,6.4-23.4c-2.3-8.4-8.9-14.9-17.3-17.1l-62.5-15.8l17.5-62c2.4-8.4,0-17.4-6.1-23.5
		c-4.5-4.5-10.7-7-16.9-7c-2.2,0-4.4,0.3-6.6,0.9l-62,17.5l-15.9-62.5c-2.1-8.4-8.7-15-17.1-17.3C322.2,0.2,320.1,0,318.1,0L318.1,0
		z"/>
</g>
</svg>
