<?xml version="1.0" encoding="utf-8"?>
<!-- Generator: Adobe Illustrator 28.0.0, SVG Export Plug-In . SVG Version: 6.00 Build 0)  -->
<svg version="1.1" id="Layer_1" xmlns="http://www.w3.org/2000/svg" xmlns:xlink="http://www.w3.org/1999/xlink" x="0px" y="0px"
	 viewBox="0 0 640 512" style="enable-background:new 0 0 640 512;" xml:space="preserve">
<style type="text/css">
	.st0{fill:#F11653;}
	.st1{fill:#151417;}
	.st2{fill:#5C44E4;}
	.st3{fill:#F637E3;}
</style>
<g>
	<path class="st3" d="M256,504.6c-2.3,0-4.5-0.3-6.8-1c-6.3-1.8-11.5-6-14.7-11.7c-3.2-5.7-3.9-12.3-2.1-18.6l128-448
		c3-10.5,12.7-17.8,23.6-17.8c2.3,0,4.5,0.3,6.8,1c6.3,1.8,11.5,6,14.7,11.7c3.2,5.7,3.9,12.3,2.1,18.6l-128,448
		C276.6,497.2,266.9,504.6,256,504.6C256,504.6,256,504.6,256,504.6z"/>
	<path class="st1" d="M384,14.9c1.6,0,3.1,0.2,4.7,0.7c4.4,1.3,8,4.2,10.3,8.1c2.2,4,2.7,8.5,1.5,12.9l-128,448
		c-2.1,7.3-8.8,12.4-16.4,12.4c-1.6,0-3.1-0.2-4.7-0.7c-4.4-1.3-8-4.2-10.3-8.1c-2.2-4-2.7-8.5-1.5-12.9l128-448
		C369.7,20,376.4,14.9,384,14.9 M384-0.1c-13.9,0-26.7,9.2-30.8,23.3l-128,448c-4.9,17,5,34.7,22,39.6c2.9,0.8,5.9,1.3,8.8,1.3
		c13.9,0,26.7-9.2,30.8-23.3l128-448c4.9-17-5-34.7-22-39.6C389.9,0.4,386.9-0.1,384-0.1L384-0.1z"/>
</g>
<g>
	<path class="st2" d="M496,392.6c-6.6,0-12.7-2.5-17.3-7.2c-9.6-9.6-9.6-25.1,0-34.7l89.4-89.4c2.9-2.9,2.9-7.7,0-10.6l-89.3-89.4
		c-4.6-4.6-7.2-10.8-7.2-17.3c0-6.5,2.5-12.6,7.1-17.2c0,0,0,0,0,0c4.6-4.6,10.8-7.2,17.3-7.2c6.6,0,12.7,2.5,17.3,7.2l112,112
		c9.6,9.6,9.6,25.1,0,34.7l-112,112C508.7,390,502.5,392.6,496,392.6z"/>
	<path class="st1" d="M496,127c4.6,0,8.8,1.8,12,5l112,112c3.2,3.2,5,7.5,5,12s-1.8,8.8-5,12l-112,112c-3.2,3.2-7.5,5-12,5
		c-4.6,0-8.8-1.8-12-5c-3.2-3.2-5-7.5-5-12s1.8-8.8,5-12l89.4-89.4c5.9-5.9,5.9-15.3,0-21.2L484,156c-6.6-6.6-6.6-17.4,0-24.1
		C487.2,128.8,491.4,127,496,127 M495.9,112c-8.2,0-16.3,3.1-22.6,9.3c-12.5,12.5-12.5,32.8,0,45.3l89.3,89.4l-89.4,89.4
		c-12.5,12.5-12.5,32.8,0,45.3c6.2,6.2,14.4,9.4,22.6,9.4c8.2,0,16.4-3.1,22.7-9.4l112-112c12.5-12.5,12.5-32.8,0-45.3l-112-112
		C512.4,115.1,504.2,112,495.9,112L495.9,112z M473.4,121.3L473.4,121.3C473.4,121.3,473.4,121.3,473.4,121.3
		C473.4,121.3,473.4,121.3,473.4,121.3L473.4,121.3z M473.3,121.4C473.3,121.4,473.3,121.4,473.3,121.4L473.3,121.4L473.3,121.4z"/>
</g>
<g>
	<path class="st0" d="M144,392.5c-6.6,0-12.7-2.5-17.3-7.2l-112-112c-9.6-9.6-9.6-25.1,0-34.7l112-112c4.6-4.6,10.8-7.2,17.3-7.2
		s12.7,2.5,17.3,7.2c9.6,9.6,9.6,25.1,0,34.7L72,250.7c-1.4,1.4-2.2,3.3-2.2,5.3c0,2,0.8,3.9,2.2,5.3l89.4,89.3
		c9.6,9.6,9.6,25.1,0,34.7C156.8,389.9,150.6,392.5,144,392.5z"/>
	<path class="st1" d="M144,126.9c4.6,0,8.8,1.8,12,5c3.2,3.2,5,7.5,5,12s-1.8,8.8-5,12l-89.4,89.4c-2.8,2.8-4.4,6.6-4.4,10.6
		c0,4,1.6,7.8,4.4,10.6l89.4,89.3c3.2,3.2,5,7.5,5,12s-1.8,8.8-5,12c-3.2,3.2-7.5,5-12,5s-8.8-1.8-12-5L20,268c-3.2-3.2-5-7.5-5-12
		s1.8-8.8,5-12l112-112C135.2,128.7,139.5,126.9,144,126.9 M144,111.9c-8.2,0-16.4,3.1-22.7,9.4l-112,112
		c-12.5,12.5-12.5,32.8,0,45.3l112,112c6.2,6.2,14.5,9.4,22.7,9.4s16.4-3.1,22.7-9.4c12.5-12.5,12.5-32.8,0-45.3L77.3,256l89.4-89.4
		c12.5-12.5,12.5-32.8,0-45.3C160.4,115,152.2,111.9,144,111.9L144,111.9z"/>
</g>
</svg>
