<?xml version="1.0" encoding="utf-8"?>
<!-- Generator: Adobe Illustrator 28.0.0, SVG Export Plug-In . SVG Version: 6.00 Build 0)  -->
<svg version="1.1" id="Layer_1" xmlns="http://www.w3.org/2000/svg" xmlns:xlink="http://www.w3.org/1999/xlink" x="0px" y="0px"
	 viewBox="0 0 512 512" style="enable-background:new 0 0 512 512;" xml:space="preserve">
<style type="text/css">
	.st0{fill:#F11653;}
	.st1{fill:#151417;}
	.st2{fill:#5C44E4;}
	.st3{fill:#F637E3;}
</style>
<g>
	<path class="st0" d="M256,312.5c-5.3,0-10.4-1.7-14.7-4.9L23.7,144.4C13.6,136.8,7.5,124.7,7.5,112c0-22.3,18.2-40.5,40.5-40.5h416
		c22.3,0,40.5,18.2,40.5,40.5c0,12.7-6.1,24.8-16.2,32.4L270.7,307.6C266.4,310.8,261.3,312.5,256,312.5z"/>
	<path class="st1" d="M63,64L63,64L63,64 M464,79c18.2,0,33,14.8,33,33c0,10.3-4.9,20.2-13.2,26.4L266.2,301.6
		c-3,2.2-6.5,3.4-10.2,3.4c-3.7,0-7.3-1.2-10.2-3.4L28.2,138.4C19.9,132.2,15,122.3,15,112c0-18.2,14.8-33,33-33c0,0,0,0,0,0
		C48.7,79,464,79,464,79 M464,64c0,0-416,0-416,0C21.5,64,0,85.5,0,112c0,15.1,7.1,29.3,19.2,38.4l217.6,163.2
		c5.7,4.2,12.4,6.4,19.2,6.4s13.5-2.1,19.2-6.4l217.6-163.2c12.1-9.1,19.2-23.3,19.2-38.4C512,85.5,490.5,64,464,64L464,64z"/>
</g>
<g>
	<path class="st2" d="M64,440.5c-31.2,0-56.5-25.3-56.5-56.5V191l205.6,154.2c12.5,9.4,27.3,14.3,42.9,14.3c15.6,0,30.4-5,42.9-14.3
		L504.5,191v193c0,31.2-25.3,56.5-56.5,56.5H64z"/>
	<path class="st1" d="M15,206l193.6,145.2c13.8,10.4,30.2,15.8,47.4,15.8c17.2,0,33.6-5.5,47.4-15.8L497,206v178c0,27-22,49-49,49
		H64c-27,0-49-22-49-49V206 M512,176L294.4,339.2C283,347.8,269.5,352,256,352s-27-4.3-38.4-12.8L0,176v208c0,35.3,28.7,64,64,64
		h384c35.3,0,64-28.7,64-64V176L512,176z"/>
</g>
</svg>
