<?xml version="1.0" encoding="utf-8"?>
<!-- Generator: Adobe Illustrator 28.0.0, SVG Export Plug-In . SVG Version: 6.00 Build 0)  -->
<svg version="1.1" id="Layer_1" xmlns="http://www.w3.org/2000/svg" xmlns:xlink="http://www.w3.org/1999/xlink" x="0px" y="0px"
	 viewBox="0 0 512 512" style="enable-background:new 0 0 512 512;" xml:space="preserve">
<style type="text/css">
	.st0{fill:#F11653;}
	.st1{fill:#151417;}
	.st2{fill:#5C44E4;}
	.st3{fill:#F637E3;}
</style>
<g>
	<path class="st0" d="M415.9,504.5c-6.6,0-12.7-2.5-17.3-7.2l-112-112c-21.4-21.3-26.6-53.9-12.9-80.9c1.5-2.9,0.9-6.4-1.4-8.7
		l-109-109c-1.4-1.4-3.3-2.2-5.3-2.2h-54.1c-5.1,0-10-2.4-13-6.4l-80-104c-5-6.5-4.4-15.9,1.5-21.7l40-40c3.1-3.1,7.3-4.8,11.7-4.8
		c3.7,0,7.1,1.2,10,3.4l104,80c4.1,3.1,6.5,7.9,6.5,13.1v54c0,2,0.8,3.9,2.2,5.3l109,109c1.4,1.4,3.4,2.2,5.3,2.2
		c1.2,0,2.3-0.3,3.4-0.8c9.7-4.9,20.6-7.5,31.5-7.5c18.7,0,36.2,7.3,49.4,20.4l112,112c9.6,9.6,9.6,25.1,0,34.7l-64,64
		C428.7,501.9,422.5,504.5,415.9,504.5z"/>
	<path class="st1" d="M64,15c1.4,0,3.4,0.3,5.4,1.8c0,0,0,0,0.1,0.1l104,80c0,0,0,0,0,0c2.2,1.7,3.5,4.3,3.5,7.1v54
		c0,4,1.6,7.8,4.4,10.6l109,109c2.9,2.9,6.7,4.4,10.6,4.4c2.3,0,4.6-0.5,6.8-1.6c8.6-4.4,18.4-6.7,28.1-6.7
		c16.7,0,32.3,6.5,44.1,18.2l112,112c6.6,6.6,6.6,17.4,0,24.1l-64,64c-3.2,3.2-7.5,5-12,5c-4.6,0-8.8-1.8-12-5l-112-112
		c-19.1-19-23.7-48.1-11.5-72.2c2.9-5.8,1.8-12.8-2.8-17.4l-109-109c-2.8-2.8-6.6-4.4-10.6-4.4h-54.1c-2.7,0-5.4-1.3-7.1-3.5
		c0,0,0,0,0,0l-80-104c-2.7-3.6-2.4-8.7,0.8-11.9l40-40C59.3,15.9,61.6,15,64,15 M64,0c-6.2,0-12.3,2.4-17,7L7,47
		c-8.5,8.5-9.4,22-2.1,31.6l80,104c4.5,5.9,11.6,9.4,19,9.4H158l109,109c-14.7,29-10,65.4,14.3,89.6l112,112
		c6.2,6.2,14.4,9.4,22.7,9.4c8.2,0,16.4-3.1,22.6-9.4l64-64c12.5-12.5,12.5-32.8,0-45.3l-112-112c-15.1-15.1-34.9-22.6-54.7-22.6
		c-12,0-24,2.8-34.9,8.3L192,158v-54c0-7.5-3.5-14.5-9.4-19L78.6,5C74.3,1.6,69.1,0,64,0L64,0z"/>
</g>
<g>
	<g>
		<path class="st2" d="M418.6,253.5c-22.1-22.1-51.4-34.2-82.6-34.2c-8.2,0-16.4,0.9-24.4,2.6l-80.1-80.1
			C232.7,67.5,293.5,7.5,368,7.5c9.8,0,19.5,1,29,3c2.8,0.6,4,2.5,4.4,4c0.6,2,0.4,5.1-2.1,7.6L335.4,86c-4.4,4.4-6.9,10.4-6.9,16.6
			v57.5c0,13,10.5,23.5,23.5,23.5h57.4c6.2,0,12.2-2.5,16.6-6.9l63.9-63.9c1.6-1.6,3.6-2.4,5.6-2.4c1.2,0,5,0.3,5.9,4.7
			c2,9.4,3,19.1,3,28.9c0,26.4-7.6,52.1-21.9,74.2c-13,20.1-31,36.3-52.1,47.2L418.6,253.5z"/>
		<path class="st1" d="M368,15c8.5,0,17,0.8,25.3,2.4l-63.3,63.3c-5.8,5.8-9.1,13.8-9.1,21.9v57.5c0,17.1,13.9,31,31,31h57.4
			c8.1,0,16.1-3.3,21.9-9.1l63.3-63.3c1.6,8.2,2.4,16.7,2.4,25.3c0,25-7.2,49.2-20.7,70.1c-11.3,17.4-26.5,31.8-44.4,42l-7.9-7.9
			c-23.5-23.5-54.7-36.4-87.9-36.4c-7.4,0-14.7,0.7-21.9,1.9l-75-75C241.9,70,298.6,15,368,15 M368,0c-79.5,0-144,64.5-144,144v0.8
			l85.3,85.3c8.8-2.2,17.8-3.3,26.7-3.3c27.9,0,55.9,10.7,77.3,32l15.7,15.7c49-23,83-72.8,83-130.5c0-10.5-1.1-20.7-3.2-30.5
			c-1.5-6.9-7.2-10.6-13.3-10.6c-3.8,0-7.8,1.5-10.9,4.6l-63.9,63.9c-3,3-7.1,4.7-11.3,4.7H352c-8.8,0-16-7.2-16-16v-57.5
			c0-4.2,1.7-8.3,4.7-11.3l63.9-63.9c8.1-8.1,5.2-21.8-6-24.2C388.7,1.1,378.5,0,368,0L368,0z"/>
	</g>
	<g>
		<path class="st2" d="M67.9,504.5c-33.3,0-60.4-27.1-60.4-60.4c0-15.9,6.5-31.4,17.7-42.7l143.2-143.3l53.5,53.5
			c-4.3,20.3-3.2,41.1,3.2,60.8L110.6,486.8C99.3,498,83.8,504.5,67.9,504.5z M80,400.5c-17.4,0-31.5,14.1-31.5,31.5
			s14.1,31.5,31.5,31.5s31.5-14.1,31.5-31.5S97.4,400.5,80,400.5z"/>
		<path class="st1" d="M168.4,268.7l45.3,45.3c-3.4,18.8-2.4,37.9,2.8,56.2L105.3,481.5c-9.9,9.9-23.5,15.5-37.4,15.5
			C38.7,497,15,473.3,15,444.1c0-13.9,5.7-27.5,15.5-37.4L168.4,268.7 M80,471c21.5,0,39-17.5,39-39s-17.5-39-39-39s-39,17.5-39,39
			S58.5,471,80,471 M168.4,247.5L19.9,396.1C7.2,408.8,0,426.1,0,444.1C0,481.6,30.4,512,67.9,512c18,0,35.3-7.2,48-19.9
			l117.8-117.8c-7.8-20.9-9-43.6-3.6-65.1L168.4,247.5L168.4,247.5z M80,456c-13.3,0-24-10.7-24-24s10.7-24,24-24
			c13.3,0,24,10.7,24,24S93.3,456,80,456L80,456z"/>
	</g>
</g>
</svg>
