<?xml version="1.0" encoding="utf-8"?>
<!-- Generator: Adobe Illustrator 28.0.0, SVG Export Plug-In . SVG Version: 6.00 Build 0)  -->
<svg version="1.1" id="Layer_1" xmlns="http://www.w3.org/2000/svg" xmlns:xlink="http://www.w3.org/1999/xlink" x="0px" y="0px"
	 viewBox="0 0 16 16" style="enable-background:new 0 0 16 16;" xml:space="preserve">
<style type="text/css">
	.st0{fill:#F11653;}
	.st1{fill:#5C44E4;}
	.st2{fill:#EFEFF1;}
</style>
<g>
	<g>
		<circle class="st0" cx="8" cy="8" r="7.8"/>
		<path d="M8,0.5c4.1,0,7.5,3.4,7.5,7.5s-3.4,7.5-7.5,7.5S0.5,12.1,0.5,8S3.9,0.5,8,0.5 M8,0C3.6,0,0,3.6,0,8s3.6,8,8,8s8-3.6,8-8
			S12.4,0,8,0L8,0z"/>
	</g>
	<g>
		<path class="st1" d="M8,13.8c-1.6,0-3.1-0.6-4.2-1.8c0.7-1.1,1.9-1.7,3.2-1.7h2c1.3,0,2.5,0.7,3.2,1.7C11.1,13.1,9.6,13.8,8,13.8z
			"/>
		<path d="M9,10.5c1.1,0,2.2,0.5,2.8,1.4c-1,1-2.4,1.6-3.8,1.6c-1.4,0-2.8-0.6-3.8-1.6C4.8,11,5.9,10.5,7,10.5H9 M9,10H7
			c-1.5,0-2.8,0.8-3.5,2c1.1,1.2,2.7,2,4.5,2s3.4-0.8,4.5-2C11.8,10.8,10.5,10,9,10L9,10z"/>
	</g>
	<g>
		<circle class="st2" cx="8" cy="6.2" r="2"/>
		<g>
			<path d="M8,4.5c1,0,1.8,0.8,1.8,1.8S9,8,8,8S6.2,7.2,6.2,6.2S7,4.5,8,4.5 M8,4C6.8,4,5.8,5,5.8,6.2s1,2.2,2.2,2.2s2.2-1,2.2-2.2
				S9.2,4,8,4L8,4z"/>
		</g>
	</g>
</g>
</svg>
