<?xml version="1.0" encoding="utf-8"?>
<!-- Generator: Adobe Illustrator 28.0.0, SVG Export Plug-In . SVG Version: 6.00 Build 0)  -->
<svg version="1.1" id="Layer_1" xmlns="http://www.w3.org/2000/svg" xmlns:xlink="http://www.w3.org/1999/xlink" x="0px" y="0px"
	 viewBox="0 0 512 512" style="enable-background:new 0 0 512 512;" xml:space="preserve">
<style type="text/css">
	.st0{fill:#F11653;}
	.st1{fill:#151417;}
	.st2{fill:#5C44E4;}
	.st3{fill:#F637E3;}
</style>
<g>
	<path class="st0" d="M256,504.5c-66.4,0-128.8-25.8-175.7-72.8S7.5,322.4,7.5,256S33.3,127.2,80.3,80.3
		C127.2,33.3,189.6,7.5,256,7.5s128.8,25.8,175.7,72.8c46.9,46.9,72.8,109.3,72.8,175.7s-25.8,128.8-72.8,175.7
		S322.4,504.5,256,504.5z M224,312.5c-48.4,0-93.4,26-117.5,68c-1.6,2.8-1.2,6.3,0.9,8.8c37.8,42.1,92,66.3,148.6,66.3
		c56.5,0,110.7-24.2,148.6-66.3c2.2-2.4,2.5-5.9,0.9-8.8c-24.1-41.9-69.1-68-117.5-68H224z M256,120.5c-43.8,0-79.5,35.7-79.5,79.5
		s35.7,79.5,79.5,79.5s79.5-35.7,79.5-79.5S299.8,120.5,256,120.5z"/>
	<path class="st1" d="M256,15c32.5,0,64.1,6.4,93.8,18.9c28.7,12.1,54.5,29.5,76.6,51.7c22.1,22.1,39.5,47.9,51.7,76.6
		c12.6,29.7,18.9,61.3,18.9,93.8s-6.4,64.1-18.9,93.8c-12.1,28.7-29.5,54.5-51.7,76.6c-22.1,22.1-47.9,39.5-76.6,51.7
		C320.1,490.6,288.5,497,256,497s-64.1-6.4-93.8-18.9c-28.7-12.1-54.5-29.5-76.6-51.7c-22.1-22.1-39.5-47.9-51.7-76.6
		C21.4,320.1,15,288.5,15,256s6.4-64.1,18.9-93.8c12.1-28.7,29.5-54.5,51.7-76.6c22.1-22.1,47.9-39.5,76.6-51.7
		C191.9,21.4,223.5,15,256,15 M256,287c48,0,87-39,87-87s-39-87-87-87s-87,39-87,87S208,287,256,287 M256,463
		c58.6,0,114.8-25.1,154.1-68.8c4.3-4.8,5.1-11.9,1.9-17.5c-25.5-44.2-73-71.7-124-71.7h-64c-51,0-98.5,27.5-124,71.7
		c-3.2,5.6-2.5,12.7,1.8,17.5C141.1,437.9,197.3,463,256,463 M256,0C114.6,0,0,114.6,0,256s114.6,256,256,256
		c141.4,0,256-114.6,256-256S397.4,0,256,0L256,0z M256,272c-39.8,0-72-32.2-72-72s32.2-72,72-72c39.8,0,72,32.2,72,72
		S295.8,272,256,272L256,272z M256,448c-56.8,0-107.8-24.6-143-63.8c22.1-38.4,63.6-64.2,111-64.2h64c47.4,0,88.9,25.8,111,64.2
		C363.8,423.3,312.8,448,256,448L256,448z"/>
</g>
</svg>
