<?xml version="1.0" encoding="utf-8"?>
<!-- Generator: Adobe Illustrator 28.0.0, SVG Export Plug-In . SVG Version: 6.00 Build 0)  -->
<svg version="1.1" id="Layer_1" xmlns="http://www.w3.org/2000/svg" xmlns:xlink="http://www.w3.org/1999/xlink" x="0px" y="0px"
	 viewBox="0 0 20 16" style="enable-background:new 0 0 20 16;" xml:space="preserve">
<style type="text/css">
	.st0{fill:#F11653;}
	.st1{fill:#F637E3;}
	.st2{fill:#5C44E4;}
</style>
<g>
	<g>
		<path class="st0" d="M8,15.8c-0.1,0-0.1,0-0.2,0c-0.2-0.1-0.4-0.2-0.5-0.4c-0.1-0.2-0.1-0.4-0.1-0.6l4-14c0.1-0.3,0.4-0.5,0.7-0.5
			c0.1,0,0.1,0,0.2,0c0.4,0.1,0.6,0.5,0.5,0.9l-4,14C8.6,15.5,8.3,15.8,8,15.8L8,15.8z"/>
		<path d="M12,0.5c0,0,0.1,0,0.1,0c0.3,0.1,0.4,0.4,0.3,0.6l-4,14c-0.1,0.2-0.3,0.4-0.5,0.4c0,0-0.1,0-0.1,0c-0.1,0-0.2-0.1-0.3-0.2
			c-0.1-0.1-0.1-0.3,0-0.4l4-14C11.6,0.6,11.8,0.5,12,0.5 M12,0c-0.4,0-0.8,0.3-1,0.7l-4,14c-0.2,0.5,0.2,1.1,0.7,1.2
			c0.1,0,0.2,0,0.3,0c0.4,0,0.8-0.3,1-0.7l4-14c0.2-0.5-0.2-1.1-0.7-1.2C12.2,0,12.1,0,12,0L12,0z"/>
	</g>
	<g>
		<path class="st1" d="M15.5,12.3c-0.2,0-0.4-0.1-0.5-0.2c-0.3-0.3-0.3-0.8,0-1.1l2.8-2.8c0.1-0.1,0.1-0.3,0-0.4L15,5
			c-0.3-0.3-0.3-0.8,0-1.1c0,0,0,0,0,0c0.1-0.1,0.3-0.2,0.5-0.2c0.2,0,0.4,0.1,0.5,0.2l3.5,3.5c0.3,0.3,0.3,0.8,0,1.1L16,12
			C15.9,12.2,15.7,12.3,15.5,12.3z"/>
		<path d="M15.5,4c0.1,0,0.3,0.1,0.4,0.1l3.5,3.5c0.1,0.1,0.1,0.2,0.1,0.4c0,0.1-0.1,0.3-0.1,0.4l-3.5,3.5C15.8,12,15.6,12,15.5,12
			s-0.3-0.1-0.4-0.1C15,11.8,15,11.6,15,11.5c0-0.1,0.1-0.3,0.1-0.4l2.8-2.8c0.2-0.2,0.2-0.5,0-0.7l-2.8-2.8c-0.2-0.2-0.2-0.5,0-0.7
			C15.2,4.1,15.4,4,15.5,4 M15.5,3.5c-0.3,0-0.5,0.1-0.7,0.3c-0.4,0.4-0.4,1,0,1.4L17.6,8l-2.8,2.8c-0.4,0.4-0.4,1,0,1.4
			c0.2,0.2,0.5,0.3,0.7,0.3s0.5-0.1,0.7-0.3l3.5-3.5c0.4-0.4,0.4-1,0-1.4l-3.5-3.5C16,3.6,15.8,3.5,15.5,3.5L15.5,3.5z M14.8,3.8
			L14.8,3.8C14.8,3.8,14.8,3.8,14.8,3.8C14.8,3.8,14.8,3.8,14.8,3.8L14.8,3.8z"/>
	</g>
	<g>
		<path class="st2" d="M4.5,12.2c-0.2,0-0.4-0.1-0.5-0.2L0.5,8.5c-0.3-0.3-0.3-0.8,0-1.1L4,4c0.1-0.1,0.3-0.2,0.5-0.2
			C4.7,3.7,4.9,3.8,5,4C5.3,4.3,5.3,4.7,5,5L2.2,7.8c0,0-0.1,0.1-0.1,0.2s0,0.1,0.1,0.2L5,11c0.3,0.3,0.3,0.8,0,1.1
			C4.9,12.2,4.7,12.2,4.5,12.2z"/>
		<path d="M4.5,4C4.6,4,4.8,4,4.9,4.1C5,4.2,5,4.4,5,4.5S5,4.8,4.9,4.9L2.1,7.6C2,7.7,1.9,7.9,1.9,8c0,0.1,0.1,0.3,0.1,0.4l2.8,2.8
			C5,11.2,5,11.4,5,11.5S5,11.8,4.9,11.9C4.8,11.9,4.6,12,4.5,12c-0.1,0-0.3-0.1-0.4-0.1L0.6,8.4C0.6,8.3,0.5,8.1,0.5,8
			s0.1-0.3,0.1-0.4l3.5-3.5C4.2,4,4.4,4,4.5,4 M4.5,3.5C4.2,3.5,4,3.6,3.8,3.8L0.3,7.3c-0.4,0.4-0.4,1,0,1.4l3.5,3.5
			c0.2,0.2,0.5,0.3,0.7,0.3c0.3,0,0.5-0.1,0.7-0.3c0.4-0.4,0.4-1,0-1.4L2.4,8l2.8-2.8c0.4-0.4,0.4-1,0-1.4C5,3.6,4.8,3.5,4.5,3.5
			L4.5,3.5z"/>
	</g>
</g>
</svg>
