<?xml version="1.0" encoding="utf-8"?>
<!-- Generator: Adobe Illustrator 28.0.0, SVG Export Plug-In . SVG Version: 6.00 Build 0)  -->
<svg version="1.1" id="Layer_1" xmlns="http://www.w3.org/2000/svg" xmlns:xlink="http://www.w3.org/1999/xlink" x="0px" y="0px"
	 viewBox="0 0 640 512" style="enable-background:new 0 0 640 512;" xml:space="preserve">
<style type="text/css">
	.st0{fill:#F11653;}
	.st1{fill:#151417;}
	.st2{fill:#5C44E4;}
	.st3{fill:#F637E3;}
</style>
<g>
	<path class="st0" d="M79.9,472.6c-0.7,0-1.3-0.1-1.9-0.2l-64.1-16c-2.8-0.7-5-2.7-5.9-5.4c-1-2.7-0.5-5.7,1.2-8
		c8.2-11.3,15.8-23.9,23.2-38.7c15.3-30.8,23.1-59.1,23.1-84.2v-28.1c0-30,8.5-59.1,24.5-84.4c1.2-1.9,1.5-4.3,0.8-6.4
		s-2.4-3.9-4.6-4.6l-57.9-20.9c-6.5-2.4-10.8-8.6-10.8-15.5s4.4-13.2,10.9-15.6L298.8,43.2c6.8-2.4,13.9-3.7,21.2-3.7
		c7.2,0,14.3,1.2,21.2,3.7l280.5,101.3c6.5,2.4,10.8,8.6,10.8,15.5c0,7-4.4,13.2-10.8,15.5l-280.6,101c-6.8,2.4-14,3.7-21.2,3.7
		s-14.3-1.2-21.2-3.7l-147.8-53.3c6.3-4.9,13.2-8.9,20.7-11.8l157-61.7c5.8-2.3,10.4-6.7,12.9-12.5c2.5-5.7,2.6-12.1,0.3-17.9
		c-3.5-9-12.1-14.9-21.9-14.9c-2.9,0-5.8,0.5-8.6,1.6l-157,61.7c-20.1,7.9-38.2,21-52.2,37.9c-0.1,0.1-0.1,0.1-0.2,0.2
		c-19,24.5-29.5,55.1-29.5,86.1v24.6c0,1.1,0.2,2.1,0.7,3.1c5.2,11.6,9.5,24.8,13,40.6c5.7,24.5,10.7,62.7,2.1,105.6
		c0,0,0,0.1,0,0.1c-0.4,2.2-1.8,4.2-3.7,5.4C83.1,472.1,81.5,472.6,79.9,472.6z"/>
	<path class="st1" d="M320,47c6.3,0,12.6,1.1,18.7,3.2L619,151.5c3.6,1.3,6,4.7,6,8.5c0,3.8-2.4,7.2-5.9,8.5l-280.6,101
		c-6,2.1-12.3,3.2-18.7,3.2c-6.3,0-12.6-1.1-18.6-3.2l-133.5-48.2c2.1-1.1,4.3-2.1,6.5-2.9l157-61.7c7.7-3,13.8-8.9,17.1-16.5
		c3.3-7.6,3.4-16,0.4-23.6c-4.7-11.9-16-19.6-28.8-19.6c-3.9,0-7.7,0.7-11.3,2.1l-157,61.7c-21.3,8.4-40.4,22.2-55.2,40.1
		c-0.1,0.1-0.2,0.3-0.3,0.4C76,227,65,259.2,65,291.9v24.6c0,2.1,0.5,4.2,1.3,6.2c4.9,10.9,9.2,24.1,12.5,39.1c0,0,0,0.1,0,0.1
		c5.5,23.7,10.4,60.8,2,102.3c0,0.1,0,0.1,0,0.2c0,0.2-0.1,0.3-0.3,0.4c-0.3,0.2-0.5,0.2-0.7,0.2c-0.1,0-0.1,0-0.2,0l-64-16
		c-0.2-0.1-0.5-0.2-0.7-0.6c-0.2-0.5,0.1-0.9,0.2-1.1c0,0,0.1-0.1,0.1-0.1c8.4-11.6,16.2-24.6,23.8-39.7C55,375.7,63,346.2,63,320
		v-28.1c0-28.5,8.1-56.3,23.4-80.4c2.4-3.8,3-8.6,1.5-12.9c-1.5-4.3-4.8-7.7-9.1-9.3L21,168.5c-3.6-1.3-6-4.7-6-8.5
		c0-3.8,2.3-7.2,6-8.5L301.3,50.2C307.4,48.1,313.7,47,320,47 M320,32c-8.1,0-16.1,1.4-23.7,4.1L15.8,137.4C6.3,140.9,0,149.9,0,160
		c0,10.1,6.3,19.1,15.8,22.6l57.9,20.9C57.3,229.3,48,259.8,48,291.9V320c0,28.4-10.8,57.7-22.3,80.8c-6.5,13-13.9,25.8-22.5,37.6
		c-3.2,4.3-4.1,9.9-2.3,15c1.8,5.1,6,8.9,11.2,10.2l64,16c1.3,0.3,2.5,0.5,3.8,0.5c3,0,6-0.9,8.6-2.5c3.7-2.3,6.3-6.1,7.1-10.4
		c8.6-42.8,4.3-81.2-2.1-108.7c-3.2-14.2-7.5-28.7-13.5-42v-24.6c0-30.2,10.2-58.7,27.9-81.5c12.9-15.5,29.6-28,49.2-35.7l157-61.7
		c1.9-0.7,3.9-1.1,5.8-1.1c6.4,0,12.4,3.8,14.9,10.1c3.2,8.2-0.8,17.5-9,20.7l-157,61.7c-12.4,4.9-23.3,12.4-32.2,21.6l159.6,57.6
		c7.6,2.7,15.6,4.1,23.7,4.1s16.1-1.4,23.7-4.1l280.6-101c9.5-3.4,15.8-12.5,15.8-22.6c0-10.1-6.3-19.1-15.8-22.6L343.7,36.1
		C336.1,33.4,328.1,32,320,32L320,32z"/>
</g>
<g>
	<path class="st2" d="M320,472.5c-49.1,0-96.3-7.9-133-22.2c-31.5-12.3-51.1-28.3-51.5-41.9l14.3-135.4L283,321.1
		c11.6,4.2,24.4,6.4,37,6.4c12.7,0,25.2-2.2,37-6.4l133.2-48.1l14.3,135.4c-0.3,13.6-20,29.6-51.5,41.9
		C416.3,464.6,369.1,472.5,320,472.5z"/>
	<path class="st1" d="M156.2,283.2l124.2,44.9c12.4,4.5,26.1,6.9,39.6,6.9c13.6,0,26.9-2.3,39.6-6.9l124.2-44.9L497,408.6
		c-0.7,8.3-15.3,22.4-46.7,34.7C415,457.1,367.5,465,320,465s-95-7.9-130.3-21.7c-31.4-12.3-46-26.4-46.7-34.7L156.2,283.2
		 M496.7,262.6L354.5,314c-11.1,4-22.8,6-34.5,6c-11.7,0-23.5-2-34.5-6l-142.2-51.4L128,408c0,35.3,86,72,192,72s192-36.7,192-72
		L496.7,262.6L496.7,262.6z"/>
</g>
</svg>
