<?xml version="1.0" encoding="utf-8"?>
<!-- Generator: Adobe Illustrator 28.0.0, SVG Export Plug-In . SVG Version: 6.00 Build 0)  -->
<svg version="1.1" id="Layer_1" xmlns="http://www.w3.org/2000/svg" xmlns:xlink="http://www.w3.org/1999/xlink" x="0px" y="0px"
	 viewBox="0 0 16 16" style="enable-background:new 0 0 16 16;" xml:space="preserve">
<style type="text/css">
	.st0{fill:#5C44E4;}
	.st1{fill:#F11653;}
	.st2{fill:#EFEFF1;}
</style>
<g>
	<g>
		<path class="st0" d="M13,15.7c-0.2,0-0.4-0.1-0.5-0.2L9,12c-0.7-0.7-0.8-1.7-0.4-2.5c0-0.1,0-0.2,0-0.3L5.1,5.8
			c0,0-0.1-0.1-0.2-0.1H3.2c-0.2,0-0.3-0.1-0.4-0.2L0.4,2.3c-0.2-0.2-0.1-0.5,0-0.7l1.2-1.2C1.7,0.3,1.9,0.2,2,0.2
			c0.1,0,0.2,0,0.3,0.1l3.3,2.5c0.1,0.1,0.2,0.2,0.2,0.4v1.7c0,0.1,0,0.1,0.1,0.2l3.4,3.4c0,0,0.1,0.1,0.2,0.1c0,0,0.1,0,0.1,0
			c0.3-0.2,0.6-0.2,1-0.2c0.6,0,1.1,0.2,1.5,0.6l3.5,3.5c0.1,0.1,0.2,0.3,0.2,0.5c0,0.2-0.1,0.4-0.2,0.5l-2,2
			C13.4,15.7,13.2,15.7,13,15.7z"/>
		<path d="M2,0.5c0,0,0.1,0,0.2,0.1l3.3,2.5c0.1,0,0.1,0.1,0.1,0.2v1.7c0,0.1,0.1,0.3,0.1,0.4l3.4,3.4c0.1,0.1,0.2,0.1,0.4,0.1
			c0.1,0,0.2,0,0.2-0.1c0.3-0.1,0.6-0.2,0.9-0.2c0.5,0,1,0.2,1.4,0.6l3.5,3.5c0.1,0.1,0.1,0.2,0.1,0.4s-0.1,0.3-0.1,0.4l-2,2
			c-0.1,0.1-0.2,0.1-0.4,0.1s-0.3-0.1-0.4-0.1l-3.5-3.5c-0.6-0.6-0.7-1.5-0.4-2.2c0.1-0.2,0.1-0.4-0.1-0.6L5.3,5.6
			C5.2,5.6,5.1,5.5,4.9,5.5H3.2c-0.1,0-0.2,0-0.2-0.1L0.6,2.2c-0.1-0.1-0.1-0.2,0-0.3l1.2-1.2C1.9,0.5,1.9,0.5,2,0.5 M2,0
			C1.8,0,1.6,0.1,1.5,0.2L0.2,1.5C0,1.7-0.1,2.2,0.2,2.5l2.5,3.2C2.8,5.9,3,6,3.2,6h1.7l3.4,3.4c-0.5,0.9-0.3,2,0.4,2.8l3.5,3.5
			c0.2,0.2,0.5,0.3,0.7,0.3c0.3,0,0.5-0.1,0.7-0.3l2-2c0.4-0.4,0.4-1,0-1.4l-3.5-3.5c-0.5-0.5-1.1-0.7-1.7-0.7
			c-0.4,0-0.7,0.1-1.1,0.3L6,4.9V3.2C6,3,5.9,2.8,5.7,2.7L2.5,0.2C2.3,0.1,2.2,0,2,0L2,0z"/>
	</g>
	<g>
		<path class="st1" d="M2.1,15.8c-1,0-1.9-0.8-1.9-1.9c0-0.5,0.2-1,0.5-1.3l4.5-4.5l1.7,1.7C6.8,10.4,6.8,11,7,11.6l-3.6,3.6
			C3.1,15.5,2.6,15.8,2.1,15.8z"/>
		<path d="M5.3,8.4l1.4,1.4c-0.1,0.6-0.1,1.2,0.1,1.7L3.3,15c-0.3,0.3-0.7,0.5-1.1,0.5c-0.9,0-1.6-0.7-1.6-1.6
			c0-0.4,0.2-0.8,0.5-1.1L5.3,8.4 M5.3,7.7l-4.6,4.6C0.2,12.8,0,13.3,0,13.9C0,15,1,16,2.1,16c0.6,0,1.1-0.2,1.5-0.6l3.7-3.7
			C7.1,11,7,10.3,7.2,9.7L5.3,7.7L5.3,7.7z"/>
	</g>
	<g>
		<path class="st1" d="M13.1,7.9c-0.7-0.7-1.6-1.1-2.6-1.1c-0.3,0-0.5,0-0.8,0.1L7.3,4.4c0.1-2.3,1.9-4.2,4.2-4.2
			c0.3,0,0.6,0,0.9,0.1c0.1,0,0.1,0.1,0.1,0.1c0,0.1,0,0.1-0.1,0.2l-2,2c-0.1,0.1-0.2,0.3-0.2,0.5V5c0,0.4,0.3,0.8,0.8,0.8h1.8
			c0.2,0,0.4-0.1,0.5-0.2l2-2c0,0,0.1-0.1,0.2-0.1c0,0,0.1,0,0.2,0.1c0.1,0.3,0.1,0.6,0.1,0.9c0,1.6-0.9,3-2.3,3.8L13.1,7.9z"/>
		<path d="M11.5,0.5c0.2,0,0.5,0,0.7,0.1l-1.9,1.9C10.1,2.7,10,2.9,10,3.2V5c0,0.6,0.4,1,1,1h1.8c0.3,0,0.5-0.1,0.7-0.3l1.9-1.9
			c0,0.2,0.1,0.5,0.1,0.7c0,1.4-0.8,2.8-2,3.5l-0.2-0.2c-0.7-0.7-1.7-1.1-2.8-1.1c-0.2,0-0.5,0-0.7,0.1L7.5,4.3
			C7.6,2.2,9.4,0.5,11.5,0.5 M11.5,0C9,0,7,2,7,4.5v0l2.7,2.7c0.3-0.1,0.6-0.1,0.8-0.1c0.9,0,1.7,0.3,2.4,1l0.5,0.5
			C14.9,7.9,16,6.3,16,4.5c0-0.3,0-0.6-0.1-1c0-0.2-0.2-0.3-0.4-0.3c-0.1,0-0.2,0-0.3,0.1l-2,2c-0.1,0.1-0.2,0.1-0.4,0.1H11
			c-0.3,0-0.5-0.2-0.5-0.5V3.2c0-0.1,0.1-0.3,0.1-0.4l2-2c0.3-0.3,0.2-0.7-0.2-0.8C12.1,0,11.8,0,11.5,0L11.5,0z"/>
	</g>
	<g>
		<circle class="st2" cx="2.5" cy="13.5" r="0.5"/>
		<path d="M2.5,13.2c0.1,0,0.2,0.1,0.2,0.2s-0.1,0.2-0.2,0.2s-0.2-0.1-0.2-0.2S2.4,13.2,2.5,13.2 M2.5,12.8c-0.4,0-0.8,0.3-0.8,0.8
			s0.3,0.8,0.8,0.8s0.8-0.3,0.8-0.8S2.9,12.8,2.5,12.8L2.5,12.8z"/>
	</g>
</g>
</svg>
